<?xml version="1.0" encoding="UTF-8"?>
<!-- Created with Inkscape (http://www.inkscape.org/) -->
<svg width="132.29mm" height="31.668mm" version="1.1" viewBox="0 0 132.29 31.668" xml:space="preserve" xmlns="http://www.w3.org/2000/svg"><g transform="translate(-6.4854 -33.825)"><g><path d="m13.435 33.825a6.9495 6.9495 0 0 0-6.9496 6.9496 6.9495 6.9495 0 0 0 6.9496 6.9495 6.9495 6.9495 0 0 0 6.766-5.3678h-6.3156v1.8286l-3.4003-3.4003 3.4003-3.4003v1.8085h6.3163a6.9495 6.9495 0 0 0-6.7667-5.3678z" fill="#e6b820" stop-color="#000000"/><path d="m30.528 34.008v5.1849h5.1849a6.9495 6.9495 0 0 0-5.1849-5.1849zm-3.1635 6.69e-4a6.9495 6.9495 0 0 0-5.1843 5.1843h5.1843zm-5.1843 8.3478a6.9495 6.9495 0 0 0 5.1843 5.1843v-5.1843zm8.3478 0v5.1843a6.9495 6.9495 0 0 0 5.1843-5.1843z" fill="#afb936" stop-color="#000000"/><path d="m30.528 50.321v5.307h5.2123a6.9495 6.9495 0 0 0-5.2123-5.307zm-3.1635 0.0013a6.9495 6.9495 0 0 0-5.3678 6.7656 6.9495 6.9495 0 0 0 6.9496 6.9496 6.9495 6.9495 0 0 0 6.7332-5.2458h-8.3149v-3.1635z" fill="#64a4c3" stop-color="#000000"/><path d="m54.405 34.901c-8.1487 1e-4 -14.755 6.6059-14.755 14.755 3e-3 2.1024 0.45536 4.1799 1.3267 6.0933l1.5824-0.0033c0.5063 0.48452 1.2081 0.82925 3.0868 0.82925 2.1671 0 4.2807-1.4448 4.2807-3.5852 0-1.6856-0.96323-2.9696-4.2541-2.9696-0.80264 0-1.3645 0.05331-2.0602 0.10681l2.4615-8.615h6.8991l0.25821-1.1462 2.3356 2.4511-3.4435 2.4649 0.24646-1.0944h-4.2627l-1.0702 3.4781c0.2943-0.05351 0.50833-0.05324 0.80263-0.05324 0.88291 0 2.3012 0.24064 3.3446 0.96302 1.311 0.80264 1.9796 2.2742 1.9796 3.8528 0 4.2808-3.5315 6.7691-7.625 6.7691-1.0178 0-1.911-0.11189-2.6236-0.28794 2.8001 3.4778 7.0245 5.5006 11.489 5.5016h14.755v-14.755c-9.3e-5 -8.1488-6.6061-14.755-14.755-14.755zm6.7238 6.6018c2.771 0 3.6668 2.1874 3.6668 4.4584 0 4.3335-2.0833 9.542-6.1251 9.542-2.6668 0-3.6879-2.1041-3.6879-4.7708 0-4.3752 2.2502-9.2295 6.1462-9.2295zm-0.271 1.9374c-2.1668 0-3.4791 4.8127-3.4791 7.3962 0 1.1875 0.20808 2.7294 1.5831 2.7294 2.2918 0 3.4169-5.3336 3.4169-7.542 0-0.97921-0.14586-2.5835-1.5209-2.5835zm2 13.846c0.02478 0 0.05577-1.13e-4 0.08054 0.0073l-0.08642 0.56032c-0.01239 0-0.04364-0.0072-0.06222-0.0072-0.39638 0-0.72456 0.66314-0.81127 1.1939l-0.29105 1.8728h-0.4459l0.37781-2.3961c0.07432-0.47918 0.11139-0.90676 0.12997-1.1721h0.39025c-0.01239 0.1843-0.01846 0.37606-0.04943 0.67093h0.01832c0.1858-0.44232 0.44592-0.7297 0.7494-0.7297zm1.1272 0c0.20438 0 0.37789 0.059 0.47079 0.13273l-0.12375 0.41272c-0.0929-0.06635-0.22318-0.11061-0.34704-0.11061-0.30967 0-0.48289 0.24309-0.48289 0.55271 0 0.27276 0.12996 0.4425 0.2786 0.59731 0.23535 0.24328 0.42136 0.57483 0.42136 0.93606 0 0.76668-0.42116 1.1504-0.97857 1.1504-0.23535 0-0.47084-0.11075-0.55755-0.19184l0.13619-0.40547c0.0929 0.07373 0.2416 0.16973 0.46457 0.16973 0.30348 0 0.48324-0.26546 0.48324-0.60457 0-0.31699-0.13007-0.50875-0.30349-0.69305-0.20438-0.22116-0.39025-0.53092-0.39025-0.87004 0-0.6045 0.36519-1.076 0.9288-1.076zm-5.7722 0.0073c0.43354 0 0.61321 0.39084 0.61321 0.80366 0 0.8699-0.63808 1.2385-1.4618 1.2385-0.01239 0.10321-0.03708 0.50128 0.01867 0.72244 0.06813 0.29488 0.223 0.45696 0.45835 0.45696 0.23535 0 0.39644-0.09601 0.53889-0.19184l0.06187 0.41306c-0.21677 0.14007-0.44572 0.22122-0.70584 0.22122-0.63174 0-0.83616-0.57504-0.83616-1.2606 0-0.96572 0.45193-2.4034 1.3128-2.4034zm2.3968 0c0.21058 0 0.42127 0.05151 0.55133 0.11787l-0.3467 2.0346c-0.08051 0.47918-0.13651 1.0693-0.13032 1.4673h-0.40235c0.0062-0.19904 0.02463-0.3984 0.04321-0.67854h-0.01867c-0.29109 0.6045-0.55717 0.7373-0.77394 0.7373-0.35303 0-0.56378-0.35369-0.56378-1.0024 0-1.0837 0.48303-2.6761 1.6412-2.6761zm-5.5617 0.05151h0.45835l0.09921 1.9907c0.01239 0.33174 0.01837 0.53796 0.03076 0.89182h0.01244c0.07432-0.30963 0.16738-0.58231 0.26028-0.90668l0.62565-1.9758h0.458l-1.0031 2.8973c-0.27871 0.7888-0.58841 1.4597-0.98479 1.8652-0.17961 0.17692-0.35309 0.30938-0.46457 0.35361l-0.17974-0.44971c0.13006-0.07372 0.29141-0.18417 0.44625-0.34636 0.1858-0.17692 0.38999-0.50118 0.48289-0.77394 0.02478-0.07372 0.03108-0.11813 0.02489-0.19185zm5.4255 0.37608c-0.6627 0-1.0405 1.312-1.0529 2.0861-0.01239 0.44969 0.06215 0.70792 0.27273 0.70792 0.30348 0 0.6255-0.70042 0.74318-1.4155l0.22295-1.3491c-0.05574-0.02214-0.11784-0.02936-0.18597-0.02936zm-2.3287 0.02214c-0.27251 0-0.55729 0.39082-0.72451 1.1649 0.48309 0 0.99102-0.1919 0.99102-0.77428 0-0.25064-0.09309-0.3906-0.26651-0.3906z" fill="#64a4c3" stop-color="#000000"/></g><path d="m74.679 34.915-0.40721 6.0921h1.0397l0.13539-2.4495c0.04518-0.83159 0.081363-1.7987 0.10852-2.5942h0.018087c0.1627 0.75928 0.37994 1.591 0.61495 2.3683l0.81339 2.6029h0.84956l0.89504-2.6391c0.27117-0.76832 0.5241-1.591 0.72295-2.3322h0.027388c-0.0091 0.82255 0.036137 1.7716 0.072347 2.558l0.11731 2.4856h1.0847l-0.35243-6.0921h-1.4464l-0.84078 2.4407c-0.23502 0.71408-0.44294 1.4641-0.60565 2.1239h-0.026871c-0.15367-0.67792-0.34375-1.401-0.56069-2.1151l-0.7953-2.4495h-1.464zm7.3458 0v6.0921h1.1116v-6.0921h-1.1116zm1.941 0v0.93121h1.7353v5.1609h1.1116v-5.1609h1.7539v-0.93121h-4.6008z" stroke-width=".26458" style="inline-size:100.596;white-space:pre"/><path d="m120.97 34.49c-0.3706 0-0.76831 0.11745-1.0666 0.40669-0.36156 0.35252-0.50643 0.9129-0.50643 1.5276v0.20774h-0.60513v0.60565h0.60513v3.7693h0.78651v-3.7693h1.0578v-0.60565h-1.0578v-0.23461c0-0.67792 0.17163-1.2656 0.84956-1.2656 0.235 0 0.38892 0.044989 0.50643 0.099219l0.10852-0.61443c-0.15365-0.06327-0.38874-0.12661-0.67799-0.12661zm-26.665 0.32556c-1.8892 0-3.1817 1.2835-3.1817 3.1998 0 2.0067 1.2834 3.0913 3.0008 3.0913 0.7412 0 1.329-0.14476 1.6092-0.28939l-0.154-0.63252c-0.31636 0.15366-0.80432 0.2527-1.2924 0.2527-1.4734 0-2.3322-0.94899-2.3322-2.4495 0-1.5999 0.94947-2.513 2.3776-2.513 0.50618 0 0.93084 0.10859 1.2201 0.25321l0.19895-0.64182c-0.2079-0.10847-0.69619-0.27078-1.4464-0.27078zm13.135 0.76791-0.77721 0.23513v0.81339h-0.67799v0.60565h0.67799v2.3864c0 0.51522 0.09056 0.9042 0.30748 1.1483 0.18982 0.2079 0.48774 0.33435 0.85834 0.33435 0.30733 0 0.55172-0.054282 0.70538-0.10852l-0.03617-0.60565c-0.1175 0.03615-0.24401 0.05426-0.46095 0.05426-0.44291 0-0.59687-0.30722-0.59687-0.84956v-2.3595h1.139v-0.60565h-1.139v-1.0485zm-8.9793 0.95808c-1.2745 0-2.0516 1.0305-2.0516 2.3502s0.80448 2.2149 2.1513 2.2149c0.69601 0 1.1838-0.15406 1.464-0.2806l-0.1447-0.56947c-0.28924 0.12655-0.64184 0.22634-1.2113 0.22634-0.80447 0-1.4821-0.44313-1.5002-1.5188h3.0732c0.0181-0.090389 0.02687-0.20782 0.02687-0.37052 0-0.80447-0.37044-2.0521-1.8076-2.0521zm5.0953 0c-0.72313 0-1.2295 0.40715-1.4464 0.8139h-0.01809l-0.04495-0.72347h-0.70487c0.0272 0.36156 0.03566 0.72343 0.03566 1.1844l5.1e-4 3.1905h0.7953v-2.6303c0-0.13558 0.01816-0.27109 0.05426-0.37052 0.14462-0.44291 0.55138-0.81339 1.0666-0.81339 0.75024 0 1.0124 0.58739 1.0124 1.2924v2.5218h0.7953v-2.6029c0-1.5005-0.94004-1.8624-1.5456-1.8624zm7.723 0c-1.2745 0-2.0521 1.0305-2.0521 2.3502s0.80447 2.2149 2.1513 2.2149c0.696 0 1.1843-0.15406 1.4645-0.2806l-0.1447-0.56947c-0.28925 0.12655-0.64183 0.22634-1.2113 0.22634-0.80447 0-1.4821-0.44313-1.5002-1.5188h3.0732c0.0181-0.090389 0.02687-0.20782 0.02687-0.37052 0-0.80447-0.37044-2.0521-1.8076-2.0521zm4.8602 0c-0.5333 0-1.0212 0.37106-1.2201 0.9586h-0.02687l-0.03617-0.86816h-0.69608c0.0271 0.40676 0.03617 0.85007 0.03617 1.3653v3.0096h0.7953v-2.3322c0-0.12655 0.00877-0.26205 0.02687-0.37052 0.10847-0.59657 0.50619-1.0123 1.0666-1.0123 0.10847 0 0.18996 7e-6 0.27131 0.018087v-0.75034c-0.0723-9e-3 -0.13569-0.018087-0.21704-0.018087zm7.6755 0c-1.2022 0-2.1694 0.85879-2.1694 2.3141 0 1.383 0.92195 2.251 2.097 2.251 1.0485 0 2.1782-0.70539 2.1782-2.3234 0-1.3287-0.84939-2.2417-2.1058-2.2417zm5.1764 0c-0.53331 0-1.0212 0.37106-1.2201 0.9586h-0.02739l-0.03565-0.86816h-0.69608c0.0271 0.40676 0.03617 0.85007 0.03617 1.3653v3.0096h0.7953v-2.3322c0-0.12655 0.00877-0.26205 0.02687-0.37052 0.10847-0.59657 0.50617-1.0123 1.0666-1.0123 0.10846 0 0.18996 7e-6 0.2713 0.018087v-0.75034c-0.0723-9e-3 -0.13569-0.018087-0.21704-0.018087zm-30.593 0.56948c0.89487 0 1.1118 0.7865 1.1028 1.2836h-2.3234c0.06329-0.55138 0.40708-1.2836 1.2206-1.2836zm12.818 0c0.89486 0 1.1118 0.7865 1.1028 1.2836h-2.3234c0.0633-0.55138 0.40709-1.2836 1.2206-1.2836zm12.581 0.027388c0.94006 0 1.3105 0.93105 1.3105 1.6722 0 0.98525-0.56932 1.6991-1.3286 1.6991-0.77736 0-1.3198-0.7229-1.3198-1.681 0-0.82255 0.40688-1.6903 1.3379-1.6903zm11.896 8.9669c-1.0124 0-1.5462 0.75923-1.5462 1.5095 0 0.42483 0.19007 0.87662 0.50643 1.2743v0.026872c-0.696 0.37964-1.1932 0.94918-1.1932 1.7808 0 0.91294 0.6871 1.7084 1.8712 1.7084 0.67792 0 1.2565-0.20771 1.7808-0.68678 0.23501 0.23501 0.39774 0.41582 0.56947 0.58756h0.93999c-0.36156-0.38868-0.67815-0.73217-1.0036-1.0847 0.45195-0.5333 0.71426-1.2929 0.87695-2.251h-0.72296c-0.1175 0.76832-0.30735 1.3559-0.58756 1.7808-0.38869-0.43387-0.96738-1.0938-1.4826-1.6903v-0.036174c0.96716-0.47907 1.3379-0.985 1.3379-1.6268 0-0.79543-0.58741-1.2924-1.3467-1.2924zm-15.961 0.099218c-0.29829 0-0.49713 0.22596-0.49713 0.49713s0.1898 0.48834 0.47904 0.48834c0.31637 0 0.50592-0.21717 0.50592-0.48834 0-0.28021-0.19858-0.49713-0.48783-0.49713zm-45.962 0.008785v0.66921h1.8531v5.4234h0.7953v-5.4234h1.8624v-0.66921h-4.5108zm61.859 0.43408c0.50618 0 0.71417 0.41592 0.71417 0.78652 0 0.52426-0.3977 0.84947-1.0123 1.202-0.25309-0.3254-0.46096-0.65986-0.46096-1.1028 0-0.47003 0.26198-0.88573 0.75913-0.88573zm-26.013 0.23513-0.77773 0.23513v0.81339h-0.678v0.60565h0.678v2.3864c0 0.51522 0.09054 0.90368 0.30747 1.1477 0.18982 0.2079 0.48827 0.33435 0.85887 0.33435 0.30733 0 0.5512-0.054281 0.70486-0.10852l-0.03617-0.60565c-0.1175 0.03615-0.24402 0.05426-0.46095 0.05426-0.44291 0-0.59635-0.30722-0.59635-0.84956v-2.359h1.139v-0.60565h-1.139v-1.0485zm7.5603 0-0.77773 0.23513v0.81339h-0.67799v0.60565h0.67799v2.3864c0 0.51522 0.09054 0.90368 0.30748 1.1477 0.18981 0.2079 0.48826 0.33435 0.85886 0.33435 0.30733 0 0.55119-0.054281 0.70486-0.10852l-0.03617-0.60565c-0.1175 0.03615-0.24401 0.05426-0.46095 0.05426-0.44291 0-0.59635-0.30722-0.59635-0.84956v-2.359h1.139v-0.60565h-1.139v-1.0485zm-36.584 0.95808c-0.5333 0-1.0212 0.37055-1.2201 0.95808h-0.026871l-0.036174-0.86765h-0.69608c0.02716 0.40676 0.036173 0.84955 0.036173 1.3648v3.0102h0.7953v-2.3322c0-0.12655 0.008812-0.26205 0.026872-0.37052 0.10847-0.59657 0.50619-1.0123 1.0666-1.0123 0.10847 0 0.18995 7e-6 0.2713 0.018087v-0.75034c-0.07234-9e-3 -0.13569-0.018087-0.21704-0.018087zm2.5011 0c-0.55138 0-1.0843 0.15385-1.4459 0.37982l0.18035 0.5333c0.30733-0.2079 0.73246-0.32556 1.1483-0.32556 0.89486-9e-3 0.99425 0.65052 0.99425 1.003v0.090434c-1.6903-9e-3 -2.6303 0.56973-2.6303 1.6273 0 0.63273 0.45208 1.2563 1.3379 1.2563 0.62369 0 1.0933-0.30712 1.3374-0.65061h0.027388l0.063046 0.55139h0.71417c-0.04518-0.29829-0.063045-0.66888-0.063045-1.0485v-1.6361c0-0.86774-0.3257-1.7808-1.6635-1.7808zm5.2493 0c-0.72312 0-1.2295 0.40663-1.4464 0.81339h-0.018087l-0.044958-0.72295h-0.70538c0.02716 0.36156 0.036174 0.72292 0.036174 1.1839v3.191h0.79582v-2.6303c0-0.13558 0.017623-0.27109 0.053743-0.37052 0.14462-0.44291 0.55138-0.8139 1.0666-0.8139 0.75023 0 1.0129 0.5879 1.0129 1.2929v2.5218h0.7953v-2.6035c0-1.5005-0.94003-1.8619-1.5456-1.8619zm4.2907 0c-0.93102 0-1.5095 0.5786-1.5095 1.2836 0 0.52426 0.37039 0.94892 1.1658 1.2382 0.5785 0.21694 0.8046 0.41566 0.8046 0.7953 0 0.3706-0.27132 0.65112-0.84078 0.65112-0.39772 0-0.81325-0.16285-1.0573-0.30747l-0.18965 0.59635c0.30732 0.18078 0.7498 0.30747 1.2289 0.30747 1.0214 0 1.6273-0.54246 1.6273-1.3198 0-0.65081-0.39802-1.0303-1.1483-1.3105-0.56946-0.22598-0.82217-0.38878-0.82217-0.75034 0-0.3254 0.25293-0.59635 0.72295-0.59635 0.40676 0 0.72329 0.15353 0.89504 0.262l0.18965-0.57826c-0.23502-0.15366-0.62369-0.2713-1.0666-0.2713zm4.6617 0c-0.71408 0-1.2386 0.30747-1.5549 0.84078h-0.018087l-0.044959-0.75034h-0.70538c0.01811 0.41579 0.036173 0.86792 0.036173 1.4283v4.7361h0.78652v-2.3771h0.018087c0.26213 0.43387 0.76819 0.68678 1.3467 0.68678 1.0304 0 1.9978-0.77746 1.9978-2.3502 0-1.3197-0.7953-2.2143-1.8619-2.2143zm4.8328 0c-1.2022 0-2.1694 0.85879-2.1694 2.3141 0 1.383 0.92195 2.2505 2.097 2.2505 1.0485 0 2.1787-0.70487 2.1787-2.3229 0-1.3287-0.84991-2.2417-2.1063-2.2417zm5.1769 0c-0.53331 0-1.0212 0.37055-1.2201 0.95808h-0.02739l-0.03617-0.86765h-0.69608c0.0272 0.40676 0.03617 0.84955 0.03617 1.3648v3.0102h0.7953v-2.3322c0-0.12655 0.00919-0.26205 0.02739-0.37052 0.10847-0.59657 0.50618-1.0123 1.0666-1.0123 0.10847 0 0.18995 7e-6 0.2713 0.018087v-0.75034c-0.0723-9e-3 -0.13569-0.018087-0.21704-0.018087zm5.8792 0c-0.55138 0-1.0849 0.15385-1.4464 0.37982l0.18086 0.5333c0.30732-0.2079 0.73194-0.32556 1.1477-0.32556 0.89486-9e-3 0.99425 0.65052 0.99425 1.003v0.090434c-1.6903-9e-3 -2.6303 0.56973-2.6303 1.6273 0 0.63273 0.45208 1.2563 1.3379 1.2563 0.62368 0 1.0939-0.30712 1.3379-0.65061h0.02687l0.06356 0.55139h0.71417c-0.0452-0.29829-0.06356-0.66888-0.06356-1.0485v-1.6361c0-0.86774-0.32518-1.7808-1.663-1.7808zm10.242 0c-1.2022 0-2.1694 0.85879-2.1694 2.3141 0 1.383 0.92247 2.2505 2.0975 2.2505 1.0485 0 2.1782-0.70487 2.1782-2.3229 0-1.3287-0.8499-2.2417-2.1063-2.2417zm5.4121 0c-0.72311 0-1.2295 0.40663-1.4464 0.81339h-0.01809l-0.04495-0.72295h-0.70539c0.0271 0.36156 0.03618 0.72292 0.03618 1.1839v3.191h0.79581v-2.6303c0-0.13558 0.01765-0.27109 0.05375-0.37052 0.14463-0.44291 0.55137-0.8139 1.0666-0.8139 0.75023 0 1.0129 0.5879 1.0129 1.2929v2.5218h0.7953v-2.6035c0-1.5005-0.94003-1.8619-1.5456-1.8619zm-9.5038 0.090434v4.3749h0.7953v-4.3749h-0.7953zm-17.224 0.50591c0.94006 0 1.311 0.93105 1.311 1.6722 0 0.98525-0.56984 1.6996-1.3291 1.6996-0.77735 0-1.3193-0.72342-1.3193-1.6816 0-0.82255 0.40638-1.6903 1.3374-1.6903zm21.298 0c0.94004 0 1.311 0.93105 1.311 1.6722 0 0.98525-0.56984 1.6996-1.3291 1.6996-0.77736 0-1.3193-0.72342-1.3193-1.6816 0-0.82255 0.40637-1.6903 1.3374-1.6903zm-26.357 0.036174c0.84063 0 1.3017 0.75024 1.3017 1.618 0 1.0033-0.48797 1.6903-1.3286 1.6903-0.56945 0-1.0486-0.37931-1.1932-0.93069-0.02708-0.09943-0.036173-0.20805-0.036173-0.32556v-0.75913c0-0.09943 0.02718-0.21735 0.05426-0.31678 0.14462-0.59658 0.65966-0.97617 1.202-0.97617zm37.955 0.85886c0.67793 0.78639 1.3562 1.5277 1.7177 1.9255-0.28925 0.31637-0.73224 0.55139-1.2475 0.55139-0.7412 0-1.2568-0.53338-1.2568-1.2294 0-0.65081 0.45207-1.0305 0.78651-1.2475zm-51.181 0.74001c0.054882-3.4e-4 0.10958-9.7e-5 0.16381 0.001033v0.75964c0 0.07231-0.009143 0.16231-0.036173 0.2527-0.12655 0.3706-0.49689 0.73226-1.0754 0.73226-0.39772 0-0.74156-0.23486-0.74156-0.75913 0-0.79656 0.86606-0.98141 1.6893-0.9865zm30.09 0c0.05489-3.4e-4 0.10959-9.7e-5 0.16382 0.001033v0.75964c0 0.07231-0.00907 0.16231-0.03617 0.2527-0.12655 0.3706-0.4969 0.73226-1.0754 0.73226-0.39772 0-0.74104-0.23486-0.74104-0.75913 0-0.79656 0.86555-0.98141 1.6888-0.9865zm-24.605 7.4311c-0.29829 0-0.49713 0.22596-0.49713 0.49713 0 0.27117 0.18979 0.48834 0.47904 0.48834 0.31636 0 0.50643-0.21717 0.50643-0.48834 0-0.28021-0.19909-0.49713-0.48834-0.49713zm9.0584 0c-0.29829 0-0.49713 0.22596-0.49713 0.49713 0 0.27117 0.1898 0.48834 0.47904 0.48834 0.31637 0 0.50591-0.21717 0.50591-0.48834 0-0.28021-0.19857-0.49713-0.48783-0.49713zm-23.91 0.009301v6.0921h3.3988v-0.65991h-2.6035v-5.4322h-0.7953zm21.355 0.66869-0.77721 0.23513v0.81339h-0.678v0.60565h0.678v2.3864c0 0.51522 0.090023 0.90368 0.30696 1.1477 0.18982 0.2079 0.48827 0.33486 0.85886 0.33486 0.30732 0 0.5512-0.054281 0.70487-0.10852l-0.036174-0.60565c-0.11751 0.03615-0.24402 0.05426-0.46095 0.05426-0.44291 0-0.59635-0.30722-0.59635-0.84956v-2.3595h1.1389v-0.60565h-1.1389v-1.0485zm-15.256 0.95808c-1.2022 0-2.1694 0.85879-2.1694 2.3141 0 1.383 0.92196 2.251 2.097 2.251 1.0485 0 2.1787-0.70539 2.1787-2.3234 0-1.3287-0.84991-2.2417-2.1063-2.2417zm4.8963 0c-1.0124 0-1.9792 0.83167-1.9792 2.3141 0 1.2112 0.77723 2.1332 1.8619 2.1332 0.67793 0 1.1571-0.3255 1.3922-0.73226h0.018087v0.47904c0 1.1118-0.59674 1.5369-1.4102 1.5369-0.54234 0-0.99439-0.16262-1.2836-0.35243l-0.19895 0.61443c0.35252 0.23502 0.93146 0.36174 1.4557 0.36174 0.55138 0 1.166-0.13584 1.5999-0.52452 0.41579-0.38868 0.62322-0.99423 0.62322-2.0066l5.17e-4 -2.5399c0-0.52426 0.009144-0.88588 0.036174-1.1932h-0.70538l-0.026872 0.65991h-0.018086c-0.19886-0.36156-0.60602-0.75034-1.3653-0.75034zm7.0275 0c-0.93102 0-1.5095 0.5786-1.5095 1.2836 0 0.52426 0.37039 0.94944 1.1658 1.2387 0.5785 0.21694 0.8046 0.41566 0.8046 0.7953 0 0.3706-0.27132 0.65061-0.84078 0.65061-0.39771 0-0.81376-0.16285-1.0578-0.30748l-0.18965 0.59686c0.30732 0.18078 0.75032 0.30747 1.2294 0.30747 1.0214 0 1.6273-0.54246 1.6273-1.3198 0-0.65081-0.39802-1.0303-1.1483-1.3105-0.56946-0.22598-0.82269-0.38878-0.82269-0.75034 0-0.3254 0.25344-0.59686 0.72347-0.59686 0.40676 0 0.72278 0.15405 0.89452 0.26252l0.19017-0.57878c-0.23502-0.15366-0.62369-0.2713-1.0666-0.2713zm9.7632 0c-1.4282 0-2.3502 0.98534-2.3502 2.3322 0 1.3378 0.85847 2.2329 2.1782 2.2329 0.58755 0 1.0489-0.15379 1.2568-0.25321l-0.1359-0.59686c-0.22597 0.09943-0.52422 0.20826-0.97617 0.20826-0.86774 0-1.5183-0.62371-1.5183-1.6361 0-0.9039 0.54233-1.6542 1.5456-1.6542 0.43388 0 0.73208 0.10831 0.9219 0.20774l0.18087-0.60565c-0.21694-0.11751-0.63273-0.23513-1.1028-0.23513zm3.468 0c-0.93102 0-1.5095 0.5786-1.5095 1.2836 0 0.52426 0.3709 0.94944 1.1663 1.2387 0.57849 0.21694 0.80408 0.41566 0.80408 0.7953 0 0.3706-0.27079 0.65061-0.84025 0.65061-0.39772 0-0.81376-0.16285-1.0578-0.30748l-0.18965 0.59686c0.30734 0.18078 0.75032 0.30747 1.2294 0.30747 1.0214 0 1.6268-0.54246 1.6268-1.3198 0-0.65081-0.39749-1.0303-1.1477-1.3105-0.56946-0.22598-0.82269-0.38878-0.82269-0.75034 0-0.3254 0.25292-0.59686 0.72295-0.59686 0.40676 0 0.72329 0.15405 0.89504 0.26252l0.18965-0.57878c-0.23502-0.15366-0.62369-0.2713-1.0666-0.2713zm-16.799 0.090434v4.3749h0.7953v-4.3749h-0.7953zm9.0578 0v4.3749h0.7953v-4.3749h-0.7953zm-17.432 0.50643c0.94005 0 1.311 0.93105 1.311 1.6722 0 0.98525-0.56984 1.6991-1.3291 1.6991-0.77735 0-1.3198-0.7229-1.3198-1.681 0-0.82255 0.40688-1.6903 1.3379-1.6903zm5.041 0.018087c0.58754 0 0.96745 0.37953 1.1121 0.84956 0.03613 0.09943 0.044959 0.21685 0.044959 0.35243v0.78652c0 0.13559-0.017865 0.2892-0.063045 0.42478-0.1627 0.50618-0.60563 0.81339-1.1028 0.81339-0.84967 0-1.2924-0.71381-1.2924-1.5725 0-1.0124 0.54193-1.6542 1.3012-1.6542z" fill="#939598" stroke-width=".26458" style="inline-size:100.596;white-space:pre"/></g></svg>
