<?xml version="1.0" encoding="UTF-8"?>
<svg width="26px" height="26px" viewBox="0 0 26 26" version="1.1" xmlns="http://www.w3.org/2000/svg" xmlns:xlink="http://www.w3.org/1999/xlink">
    <!-- Generator: Sketch 51.2 (57519) - http://www.bohemiancoding.com/sketch -->
    <title>Group 8</title>
    <desc>Created with Sketch.</desc>
    <defs></defs>
    <g id="Finished-Style-Symbols" stroke="none" stroke-width="1" fill="none" fill-rule="evenodd">
        <g id="TopNav/-Onboarding" transform="translate(-68.000000, -17.000000)" fill="#a31f34">
            <g id="Group-2">
                <g id="Group" transform="translate(67.280000, 17.000000)">
                    <g id="Group-3">
                        <g id="Group-8">
                            <path d="M13.2803963,2.35325203 C7.43238083,2.35325203 2.67473127,7.13687379 2.67473127,13.0167996 C2.67473127,18.8967255 7.43238083,23.6803472 13.2803963,23.6803472 C19.1284119,23.6803472 23.8865139,18.8967255 23.8865139,13.0167996 C23.8865139,7.13687379 19.1284119,2.35325203 13.2803963,2.35325203 M13.2803963,25.5999574 C6.37956639,25.5999574 0.76554105,19.955068 0.76554105,13.0167996 C0.76554105,6.07830504 6.37956639,0.433641827 13.2803963,0.433641827 C20.1812122,0.433641827 25.7952516,6.07830504 25.7952516,13.0167996 C25.7952516,19.955068 20.1812122,25.5999574 13.2803963,25.5999574" id="Fill-5"></path>
                            <polygon id="Fill-14" points="9.05997694 17.7354838 11.0713028 17.7354838 11.0713028 8.29811546 9.05997694 8.29811546"></polygon>
                            <polygon id="Fill-15" points="15.4892637 17.7354838 17.5005754 17.7354838 17.5005754 8.29811546 15.4892637 8.29811546"></polygon>
                            <polygon id="Fill-16" points="12.2593226 14.7020379 14.2706343 14.7020379 14.2706343 8.29811546 12.2593226 8.29811546"></polygon>
                        </g>
                    </g>
                </g>
            </g>
        </g>
    </g>
</svg>
